<?xml version="1.0" standalone="no"?>
<!DOCTYPE svg PUBLIC "-//W3C//DTD SVG 20010904//EN"
 "http://www.w3.org/TR/2001/REC-SVG-20010904/DTD/svg10.dtd">
<svg version="1.0" xmlns="http://www.w3.org/2000/svg"
 width="3584.000000pt" height="3584.000000pt" viewBox="0 0 3584.000000 3584.000000"
 preserveAspectRatio="xMidYMid meet">
<metadata>
Created by potrace 1.14, written by Peter Selinger 2001-2017
</metadata>
<g transform="translate(0.000000,3584.000000) scale(0.100000,-0.100000)"
fill="#000000" stroke="none">
<path d="M12338 20795 c-2 -2 -44 -6 -93 -9 -84 -5 -123 -9 -235 -21 -87 -9
-135 -15 -190 -25 -30 -6 -72 -12 -92 -15 -20 -3 -67 -12 -105 -21 -37 -8 -79
-17 -93 -20 -14 -2 -59 -14 -100 -25 -41 -12 -79 -22 -85 -23 -42 -10 -103
-28 -120 -36 -11 -5 -54 -21 -95 -35 -88 -31 -298 -122 -320 -139 -8 -7 -28
-18 -45 -26 -72 -35 -238 -149 -319 -220 -17 -14 -68 -63 -115 -110 -72 -71
-112 -119 -218 -266 -33 -44 -142 -267 -145 -294 0 -3 -5 -16 -10 -30 -26 -66
-61 -214 -76 -320 -8 -62 -7 -397 2 -450 3 -19 8 -49 11 -66 2 -17 7 -37 9
-45 3 -8 7 -25 10 -39 8 -49 58 -185 93 -255 36 -71 100 -176 113 -185 4 -3 9
-10 11 -17 7 -21 82 -107 156 -180 68 -66 213 -183 228 -183 3 0 11 -5 18 -11
35 -30 203 -119 307 -161 104 -43 309 -103 415 -122 17 -3 41 -8 54 -11 25 -5
97 -15 146 -20 17 -2 59 -7 95 -10 84 -10 388 -10 510 0 96 7 109 8 210 19 30
4 71 8 90 10 19 2 55 7 80 11 25 4 61 8 80 10 19 2 55 6 80 10 25 3 61 8 80
10 19 3 44 7 55 9 11 2 49 7 85 11 36 3 72 8 80 10 8 2 40 7 70 10 70 7 125
14 245 30 27 4 84 11 170 21 220 25 668 23 780 -3 11 -2 34 -6 50 -9 17 -2 41
-7 55 -10 14 -4 30 -8 37 -10 35 -7 152 -50 181 -65 17 -10 32 -15 32 -11 0 4
4 3 8 -3 4 -5 34 -28 67 -50 70 -47 79 -56 135 -126 43 -54 83 -133 94 -185 4
-16 9 -40 13 -54 13 -52 6 -215 -12 -275 -9 -33 -17 -62 -18 -65 -2 -15 -54
-111 -81 -149 -67 -95 -173 -181 -311 -252 -78 -40 -170 -80 -185 -81 -3 -1
-30 -9 -60 -20 -30 -11 -62 -21 -70 -23 -8 -2 -44 -11 -80 -20 -69 -18 -87
-22 -135 -30 -16 -3 -66 -12 -110 -20 -221 -39 -393 -50 -795 -50 -294 0 -451
6 -595 21 -22 2 -62 6 -90 9 -27 2 -63 6 -80 9 -16 3 -50 8 -75 11 -49 7 -85
13 -85 15 0 1 -16 3 -35 5 -46 5 -328 62 -390 79 -8 2 -37 9 -65 16 -27 6 -57
14 -65 17 -8 2 -16 4 -17 4 -2 0 -21 6 -43 14 -22 8 -44 15 -48 15 -25 3 -287
93 -429 149 -139 54 -486 220 -668 319 l-89 49 -63 -95 c-35 -52 -63 -97 -63
-99 0 -2 -6 -10 -12 -18 -11 -10 -78 -111 -123 -184 -12 -19 -115 -177 -249
-380 l-95 -145 32 -20 c84 -51 430 -219 577 -279 91 -38 180 -75 198 -82 18
-8 39 -15 47 -15 8 0 15 -4 15 -10 0 -5 3 -9 8 -8 4 2 90 -25 192 -59 172 -57
291 -94 315 -99 6 -1 73 -18 150 -39 77 -20 151 -38 165 -40 14 -2 26 -4 28
-6 3 -2 10 -4 62 -14 25 -5 47 -9 50 -10 16 -3 79 -16 100 -20 14 -3 68 -12
120 -21 52 -8 106 -18 120 -20 61 -12 235 -36 290 -39 54 -4 150 -14 205 -21
210 -26 894 -26 1190 0 108 10 172 16 190 20 11 2 45 7 76 10 31 4 67 9 80 11
13 3 41 7 64 11 173 25 433 87 620 146 72 23 132 42 135 43 83 26 339 142 455
208 115 65 299 194 366 257 8 8 38 36 65 61 179 169 350 422 415 614 7 22 16
45 20 50 3 6 10 24 14 40 5 17 9 35 11 40 4 15 13 52 19 76 2 11 6 28 9 37 3
9 8 37 11 62 3 25 8 59 11 75 16 91 18 453 3 473 -3 4 -5 15 -13 76 -4 33 -12
71 -17 84 -5 14 -12 39 -15 57 -4 27 -28 94 -78 220 -6 17 -22 46 -34 65 -12
19 -28 47 -35 63 -6 15 -15 27 -19 27 -5 0 -8 7 -8 15 0 8 -4 15 -10 15 -5 0
-10 5 -10 11 0 16 -118 155 -186 219 -64 59 -237 190 -253 190 -5 0 -16 6 -23
13 -12 11 -182 97 -193 97 -3 0 -24 9 -48 19 -69 31 -127 51 -127 45 0 -4 -6
-2 -12 3 -11 8 -84 32 -120 39 -5 1 -9 2 -10 4 -4 2 -11 4 -158 34 -69 14
-150 28 -180 31 -30 3 -73 8 -95 10 -113 13 -209 16 -395 16 -242 0 -376 -7
-655 -37 -27 -3 -66 -7 -85 -9 -19 -2 -60 -6 -90 -9 -30 -4 -71 -8 -90 -10
-78 -8 -157 -17 -195 -23 -22 -3 -53 -7 -70 -8 -81 -8 -143 -15 -175 -20 -19
-3 -58 -7 -85 -10 -28 -2 -64 -6 -80 -9 -26 -4 -84 -10 -205 -22 -82 -8 -430
-10 -490 -3 -128 16 -152 19 -159 23 -3 2 -22 7 -41 10 -130 22 -263 91 -362
188 -43 42 -78 83 -78 92 0 9 -4 16 -8 16 -19 0 -56 136 -58 215 -2 85 21 196
50 240 9 14 14 25 11 25 -3 0 7 19 23 43 78 112 211 209 387 280 62 26 242 83
285 91 25 5 104 21 150 31 14 3 48 8 75 11 28 3 64 7 80 9 126 16 240 20 510
20 313 0 449 -6 628 -29 26 -3 68 -8 95 -11 26 -3 76 -10 112 -16 36 -6 76
-12 90 -14 23 -3 264 -48 320 -59 47 -10 75 -16 95 -21 11 -3 47 -12 80 -19
33 -8 60 -15 60 -16 0 -2 13 -5 50 -13 37 -7 80 -19 95 -24 8 -3 22 -7 30 -9
25 -6 292 -91 355 -114 97 -36 188 -70 220 -85 108 -48 109 -48 125 -24 8 12
31 52 51 88 79 148 183 339 212 391 17 30 44 80 60 110 16 30 40 75 54 100 14
25 41 77 61 115 20 39 40 73 44 76 5 3 3 11 -4 16 -12 10 -163 74 -308 131
-82 32 -511 169 -555 178 -11 2 -50 12 -87 23 -38 11 -68 17 -68 15 0 -3 -8 0
-17 5 -10 5 -31 11 -48 14 -16 3 -39 8 -50 11 -11 3 -53 12 -94 21 -41 9 -77
18 -81 20 -3 2 -26 6 -51 9 -24 3 -59 10 -77 15 -18 5 -36 10 -40 10 -19 0
-120 17 -124 21 -2 1 -16 3 -33 5 -53 5 -130 16 -145 20 -8 2 -40 7 -70 10
-30 3 -68 8 -83 11 -15 2 -51 7 -80 9 -29 3 -68 7 -87 9 -19 3 -75 8 -125 12
-49 3 -108 9 -130 11 -50 5 -772 12 -777 8z"/>
<path d="M0 17924 l0 -2804 28 -1 c147 -3 1103 0 1109 4 6 4 11 5566 4 5599 0
4 -257 7 -571 7 l-570 0 0 -2805z"/>
<path d="M2589 20727 c-4 -12 0 -5599 4 -5603 3 -4 140 -6 304 -5 164 1 305 2
313 2 293 -3 503 -2 508 4 4 4 7 990 7 2191 0 1201 4 2184 8 2185 9 0 119 -52
127 -61 3 -3 77 -42 165 -86 88 -45 212 -109 275 -142 63 -33 178 -92 255
-132 239 -123 260 -135 263 -142 2 -5 11 -8 21 -8 9 0 21 -4 27 -9 8 -7 59
-34 399 -211 261 -136 346 -180 490 -255 83 -43 191 -99 240 -125 50 -26 142
-74 205 -106 63 -32 117 -62 118 -66 2 -5 12 -8 22 -8 10 0 20 -3 22 -7 3 -7
40 -27 250 -134 32 -16 60 -28 62 -27 2 2 12 -4 22 -13 11 -8 55 -34 99 -56
202 -103 301 -155 312 -165 7 -6 13 -7 13 -4 0 4 17 -5 37 -19 21 -14 43 -25
50 -25 11 0 15 -28 12 -95 0 -11 0 -27 0 -35 0 -8 0 -368 0 -800 -1 -432 -1
-792 0 -800 0 -8 0 -80 0 -160 0 -80 0 -152 0 -160 0 -8 0 -131 0 -272 1 -200
4 -258 13 -259 16 0 1075 0 1104 0 l22 1 0 2805 0 2804 -568 0 -568 -1 -2
-131 c-1 -73 -2 -139 -1 -147 0 -13 0 -285 0 -315 0 -5 0 -248 1 -540 0 -291
0 -567 0 -613 l0 -83 -137 72 c-76 40 -194 101 -263 137 -69 35 -147 77 -175
92 -27 15 -97 51 -155 81 -58 30 -106 57 -108 61 -2 5 -11 8 -21 8 -9 0 -21 4
-26 9 -6 4 -62 35 -125 68 -63 34 -160 84 -215 113 -55 29 -131 69 -170 88
-38 19 -82 44 -97 54 -16 11 -28 16 -28 12 0 -3 -6 -2 -12 4 -7 5 -62 36 -123
67 -60 32 -157 82 -215 113 -113 59 -248 130 -430 225 -63 33 -155 81 -205
107 -49 26 -144 76 -210 110 -178 93 -319 167 -420 220 -49 26 -128 67 -175
91 -47 24 -87 46 -90 49 -3 3 -26 15 -52 27 -46 22 -50 22 -612 22 -311 0
-566 -1 -567 -2z"/>
<path d="M17086 20722 c-6 -10 2 -3472 8 -3507 2 -16 8 -55 11 -85 3 -30 8
-66 11 -80 2 -14 7 -43 10 -65 4 -22 19 -92 35 -155 16 -63 31 -123 33 -132 3
-9 9 -25 14 -35 6 -10 11 -22 12 -28 18 -80 114 -292 190 -421 56 -95 179
-265 217 -301 12 -12 23 -25 23 -28 0 -11 167 -172 243 -234 91 -74 270 -195
342 -231 28 -14 52 -27 55 -30 21 -22 353 -159 460 -189 25 -8 52 -16 60 -19
8 -3 20 -6 25 -7 6 -2 38 -10 72 -19 61 -16 147 -35 188 -41 11 -2 47 -8 80
-14 33 -5 78 -13 100 -16 23 -3 50 -7 60 -9 11 -2 65 -7 120 -11 55 -4 118 -9
140 -11 54 -5 464 -5 540 0 67 4 187 16 225 21 14 2 48 7 76 10 28 3 61 8 75
10 13 3 51 10 84 16 118 22 116 21 255 58 108 28 239 72 355 119 48 19 244
113 275 132 236 142 339 220 485 364 118 118 208 228 298 366 61 94 160 285
182 350 1 3 8 19 15 35 7 17 14 35 15 40 2 6 13 39 25 75 12 36 24 72 25 80 2
8 4 15 5 15 1 0 3 7 5 15 2 8 8 35 15 60 26 101 43 196 56 300 3 25 8 59 11
75 4 17 8 818 10 1782 l4 1752 -570 0 -569 -1 0 -1611 c-1 -887 -4 -1641 -7
-1677 -8 -88 -12 -120 -18 -155 -3 -16 -9 -50 -13 -75 -4 -25 -8 -47 -9 -50
-1 -3 -5 -21 -9 -40 -32 -146 -132 -370 -223 -499 -103 -146 -308 -320 -464
-394 -165 -77 -359 -136 -504 -153 -22 -3 -51 -7 -65 -10 -156 -28 -557 -22
-727 12 -13 2 -35 6 -50 9 -106 20 -148 31 -228 57 -122 40 -261 107 -364 175
-91 61 -246 209 -296 283 -16 25 -33 47 -36 50 -9 7 -81 137 -106 190 -29 62
-84 220 -76 220 3 0 0 7 -7 15 -7 8 -10 15 -6 15 3 0 1 11 -4 25 -11 28 -15
49 -31 145 -28 174 -28 204 -29 1907 l0 1562 -565 0 c-311 0 -567 -4 -569 -7z"/>
<path d="M24023 20717 c-11 -14 -11 -5582 -1 -5592 4 -4 143 -6 310 -6 167 1
310 2 318 2 328 -3 492 -2 497 3 4 4 7 363 7 799 l1 792 855 0 c470 0 865 -2
878 -4 18 -3 60 -58 173 -228 82 -124 149 -228 149 -233 0 -4 9 -15 20 -25 11
-10 20 -24 20 -31 0 -7 4 -14 8 -16 8 -3 78 -105 92 -133 3 -5 51 -79 108
-162 56 -84 102 -157 102 -162 0 -5 3 -11 8 -13 8 -3 342 -504 342 -513 0 -3
9 -14 20 -25 11 -11 20 -27 20 -35 0 -17 -3 -17 320 -15 113 0 210 1 215 1 20
-1 450 -1 465 0 8 0 100 -1 203 -2 177 -1 215 2 192 19 -6 4 -14 15 -20 24 -5
10 -54 82 -107 160 -53 79 -133 197 -178 263 -45 66 -88 129 -96 140 -8 11
-32 47 -54 80 -22 33 -43 65 -48 70 -4 6 -50 73 -102 150 -52 77 -98 142 -102
143 -4 2 -8 8 -8 12 0 5 -27 48 -60 95 -33 47 -60 90 -60 95 0 4 -4 10 -9 12
-5 2 -35 44 -68 94 -33 51 -65 98 -72 105 -6 8 -35 50 -63 94 -29 44 -55 82
-58 85 -14 13 -50 70 -50 80 0 5 -4 10 -8 10 -8 0 -16 14 -40 63 -2 4 1 7 7 7
48 0 418 199 504 270 7 6 37 29 67 53 85 65 231 217 309 321 39 53 71 98 71
102 0 4 6 15 14 23 19 23 83 145 113 216 48 114 48 114 56 145 2 8 7 22 10 30
12 28 48 165 52 195 8 63 15 107 19 114 2 3 7 40 11 81 4 41 9 89 11 105 5 41
4 320 -1 370 -13 137 -30 258 -41 297 -3 10 -7 30 -10 45 -7 40 -46 176 -54
188 -4 6 -10 22 -13 36 -4 14 -16 47 -29 75 -12 27 -22 51 -23 54 0 3 -24 48
-53 100 -132 238 -326 441 -562 589 -81 51 -224 125 -293 152 -29 11 -65 27
-82 34 -16 7 -48 19 -70 25 -22 7 -46 17 -52 23 -7 5 -13 7 -13 4 0 -4 -19 1
-42 9 -82 29 -258 71 -382 90 -21 3 -48 8 -60 10 -11 2 -41 6 -66 9 -25 3 -56
8 -70 10 -14 3 -53 7 -87 10 -35 4 -89 9 -120 12 -32 3 -772 7 -1645 9 -1233
3 -1588 1 -1595 -9z m3142 -989 c18 -5 68 -13 152 -23 64 -8 239 -55 303 -82
8 -3 17 -7 20 -8 24 -7 137 -69 185 -102 69 -46 205 -180 205 -201 0 -4 8 -17
19 -28 40 -44 115 -232 126 -317 2 -23 7 -53 10 -67 7 -34 7 -244 0 -300 -13
-101 -65 -280 -93 -325 -4 -5 -7 -13 -7 -17 0 -4 -20 -37 -45 -75 -55 -85
-166 -198 -245 -251 -62 -41 -164 -99 -178 -101 -4 0 -22 -7 -40 -14 -66 -28
-219 -74 -277 -83 -145 -23 -154 -25 -226 -29 -58 -3 -213 -5 -289 -4 -21 0
-938 0 -965 0 -68 -1 -403 -2 -521 -1 l-145 0 0 1013 c0 614 3 1014 9 1018 11
8 1973 4 2002 -3z"/>
<path d="M30739 20712 c-4 -111 0 -5584 4 -5588 3 -4 142 -5 309 -5 167 1 308
2 313 2 23 -1 451 -1 465 0 12 0 430 0 490 0 59 -1 458 -1 470 0 12 0 430 0
490 0 59 -1 458 -1 470 0 12 0 430 0 490 0 59 -1 458 -1 470 0 13 0 438 0 493
-1 9 0 96 0 192 0 96 -1 180 -1 185 -1 7 1 9 169 8 498 l-3 496 -1855 1 -1855
1 0 773 c0 426 2 777 5 780 3 4 727 7 1610 7 l1605 0 1 467 2 468 -1612 2
-1611 3 0 555 0 555 1820 5 1819 5 0 495 0 495 -2387 2 c-2230 1 -2387 0
-2388 -15z"/>
</g>
</svg>
